<svg xmlns="http://www.w3.org/2000/svg" viewBox="0 0 168 168" width="150" height="150">
  <!-- Outer green circle with black border -->
  <circle cx="84" cy="84" r="82" fill="#1ED760" stroke="black" stroke-width="4"></circle>

  <!-- Spotify Black Sound Waves (curves) -->
  <path fill="black" d="M121.6,122.9c-1.6,2.5-4.9,3.3-7.4,1.7c-20.3-12.4-45.8-15.2-75.9-8.3
    c-2.9,0.7-5.9-1.1-6.6-4c-0.7-2.9,1.1-5.9,4-6.6c33.5-7.7,62.5-4.4,86.3,9.8
    C122.4,117.1,123.2,120.4,121.6,122.9z"></path>
    
  <path fill="black" d="M132.3,101.3c-2,3-6.1,3.9-9.1,1.9
    c-23.3-14.3-58.8-18.5-86.4-10.1c-3.4,1.1-7-0.9-8-4.3c-1.1-3.4,0.9-7,4.3-8
    c32.8-9.7,73.3-5.1,101.6,12.1
    C133.2,94.2,134.3,98.2,132.3,101.3z"></path>
    
  <path fill="black" d="M134.6,78.2c-27.1-16.4-72.2-17.9-98-9.7
    c-4,1.2-8.2-1-9.4-5c-1.2-4,1-8.2,5-9.4
    c30.4-9.2,81.7-7.5,113.7,11.2
    c3.7,2.2,4.8,7,2.6,10.6
    C146.2,79.2,140.3,81.7,134.6,78.2z"></path>
</svg>
